<svg xmlns="http://www.w3.org/2000/svg" xmlns:xlink="http://www.w3.org/1999/xlink" version="1.1" xml:space="preserve" viewBox="0 0 140 100">
<desc>Created with Fabric.js 3.5.0</desc>
<defs>
</defs>
<rect x="0" y="0" width="100%" height="100%" fill="rgba(255,255,255,0)"/>
<g transform="matrix(1 0 0 1 70.4131 49.9469)" id="2811">
<g style="">
		<g transform="matrix(1.9549 0 0 1.9549 8.0761 0.0008)" id="SvgjsG2309">
<linearGradient id="SVGID_26" gradientUnits="objectBoundingBox" gradientTransform="matrix(1 0 0 1 40.15 35.95)" x1="0" y1="0" x2="1" y2="0">
<stop offset="0%" style="stop-color:rgba(255, 197, 110, 1);stop-opacity: 1"/>
<stop offset="100%" style="stop-color:rgb(250,240,161);stop-opacity: 1"/>
</linearGradient>
<path style="stroke: none; stroke-width: 1; stroke-dasharray: none; stroke-linecap: butt; stroke-dashoffset: 0; stroke-linejoin: miter; stroke-miterlimit: 4; is-custom-font: none; font-file-url: none; fill: url(#SVGID_26); fill-rule: nonzero; opacity: 1;" transform=" translate(-40.15, -35.95)" d="M 70.2 10.9 H 22.8 c -0.6 0 -1.1 0.4 -1.3 1 L 8.8 59.4 c -0.2 0.8 0.4 1.6 1.3 1.6 h 47.4 c 0.6 0 1.1 -0.4 1.3 -1 l 12.7 -47.5 C 71.7 11.7 71.1 10.9 70.2 10.9 z M 19.6 53.1 l -1 3.7 c -0.2 0.6 -0.7 1 -1.3 1 h -3.6 c -0.9 0 -1.5 -0.8 -1.3 -1.6 l 1 -3.7 c 0.2 -0.6 0.7 -1 1.3 -1 h 3.6 C 19.2 51.4 19.9 52.2 19.6 53.1 z M 35.2 18.9 l 1 -3.7 c 0.2 -0.6 0.7 -1 1.3 -1 h 3.6 c 0.9 0 1.5 0.8 1.3 1.6 l -1 3.7 c -0.2 0.6 -0.7 1 -1.3 1 h -3.6 C 35.6 20.6 34.9 19.8 35.2 18.9 z M 22.4 18.9 l 1 -3.7 c 0.2 -0.6 0.7 -1 1.3 -1 h 3.6 c 0.9 0 1.5 0.8 1.3 1.6 l -1 3.7 c -0.2 0.6 -0.7 1 -1.3 1 h -3.6 C 22.8 20.6 22.2 19.8 22.4 18.9 z M 32.4 53.1 l -1 3.7 c -0.2 0.6 -0.7 1 -1.3 1 h -3.6 c -0.9 0 -1.5 -0.8 -1.3 -1.6 l 1 -3.7 c 0.2 -0.6 0.7 -1 1.3 -1 h 3.6 C 32 51.4 32.6 52.2 32.4 53.1 z M 45.1 53.1 l -1 3.7 c -0.2 0.6 -0.7 1 -1.3 1 h -3.6 c -0.9 0 -1.5 -0.8 -1.3 -1.6 l 1 -3.7 c 0.2 -0.6 0.7 -1 1.3 -1 h 3.6 C 44.7 51.4 45.3 52.2 45.1 53.1 z M 45.6 37.2 l -11.7 9.3 c -1.4 1.1 -3 0.3 -2.6 -1.2 l 5 -18.5 c 0.4 -1.5 2.5 -2.3 3.2 -1.2 l 6.8 9.3 C 46.8 35.5 46.5 36.5 45.6 37.2 z M 47.9 18.9 l 1 -3.7 c 0.2 -0.6 0.7 -1 1.3 -1 h 3.6 c 0.9 0 1.5 0.8 1.3 1.6 l -1 3.7 c -0.2 0.6 -0.7 1 -1.3 1 h -3.6 C 48.3 20.6 47.6 19.8 47.9 18.9 z M 57.8 53.1 l -1 3.7 c -0.2 0.6 -0.7 1 -1.3 1 h -3.6 c -0.9 0 -1.5 -0.8 -1.3 -1.6 l 1 -3.7 c 0.2 -0.6 0.7 -1 1.3 -1 h 3.6 C 57.4 51.4 58 52.2 57.8 53.1 z M 67.8 15.9 l -1 3.7 c -0.2 0.6 -0.7 1 -1.3 1 h -3.6 c -0.9 0 -1.5 -0.8 -1.3 -1.6 l 1 -3.7 c 0.2 -0.6 0.7 -1 1.3 -1 h 3.6 C 67.4 14.2 68 15 67.8 15.9 z" stroke-linecap="round"/>
</g>
		<g transform="matrix(1.9549 0 0 1.9549 -54.9692 -26.4882)" id="SvgjsG2309">
<linearGradient id="SVGID_27" gradientUnits="objectBoundingBox" gradientTransform="matrix(1 0 0 1 7.9 22.4)" x1="0" y1="0" x2="1" y2="0">
<stop offset="0%" style="stop-color:rgba(255, 197, 110, 1);stop-opacity: 1"/>
<stop offset="100%" style="stop-color:rgb(250,240,161);stop-opacity: 1"/>
</linearGradient>
<path style="stroke: none; stroke-width: 1; stroke-dasharray: none; stroke-linecap: butt; stroke-dashoffset: 0; stroke-linejoin: miter; stroke-miterlimit: 4; is-custom-font: none; font-file-url: none; fill: url(#SVGID_27); fill-rule: nonzero; opacity: 1;" transform=" translate(-7.9, -22.4)" d="M 3.2 24.1 h 9.4 c 1 0 1.7 -0.8 1.7 -1.7 c 0 -1 -0.8 -1.7 -1.7 -1.7 H 3.2 c -1 0 -1.7 0.8 -1.7 1.7 C 1.5 23.4 2.3 24.1 3.2 24.1 z" stroke-linecap="round"/>
</g>
		<g transform="matrix(1.9549 0 0 1.9549 -58.8792 -8.699)" id="SvgjsG2309">
<linearGradient id="SVGID_28" gradientUnits="objectBoundingBox" gradientTransform="matrix(1 0 0 1 5.9 31.5)" x1="0" y1="0" x2="1" y2="0">
<stop offset="0%" style="stop-color:rgba(255, 197, 110, 1);stop-opacity: 1"/>
<stop offset="100%" style="stop-color:rgb(250,240,161);stop-opacity: 1"/>
</linearGradient>
<path style="stroke: none; stroke-width: 1; stroke-dasharray: none; stroke-linecap: butt; stroke-dashoffset: 0; stroke-linejoin: miter; stroke-miterlimit: 4; is-custom-font: none; font-file-url: none; fill: url(#SVGID_28); fill-rule: nonzero; opacity: 1;" transform=" translate(-5.9, -31.5)" d="M 2.2 33.2 h 7.4 c 1 0 1.7 -0.8 1.7 -1.7 c 0 -1 -0.8 -1.7 -1.7 -1.7 H 2.2 c -1 0 -1.7 0.8 -1.7 1.7 C 0.5 32.4 1.3 33.2 2.2 33.2 z" stroke-linecap="round"/>
</g>
		<g transform="matrix(1.9549 0 0 1.9549 -59.0745 8.8951)" id="SvgjsG2309">
<linearGradient id="SVGID_29" gradientUnits="objectBoundingBox" gradientTransform="matrix(1 0 0 1 5.8 40.5)" x1="0" y1="0" x2="1" y2="0">
<stop offset="0%" style="stop-color:rgba(255, 197, 110, 1);stop-opacity: 1"/>
<stop offset="100%" style="stop-color:rgb(250,240,161);stop-opacity: 1"/>
</linearGradient>
<path style="stroke: none; stroke-width: 1; stroke-dasharray: none; stroke-linecap: butt; stroke-dashoffset: 0; stroke-linejoin: miter; stroke-miterlimit: 4; is-custom-font: none; font-file-url: none; fill: url(#SVGID_29); fill-rule: nonzero; opacity: 1;" transform=" translate(-5.8, -40.5)" d="M 8.4 38.8 H 3.2 c -1 0 -1.7 0.8 -1.7 1.7 c 0 1 0.8 1.7 1.7 1.7 h 5.2 c 1 0 1.7 -0.8 1.7 -1.7 C 10.1 39.6 9.3 38.8 8.4 38.8 z" stroke-linecap="round"/>
</g>
		<g transform="matrix(1.9549 0 0 1.9549 -63.3755 26.6845)" id="SvgjsG2309">
<linearGradient id="SVGID_30" gradientUnits="objectBoundingBox" gradientTransform="matrix(1 0 0 1 3.6 49.6)" x1="0" y1="0" x2="1" y2="0">
<stop offset="0%" style="stop-color:rgba(255, 197, 110, 1);stop-opacity: 1"/>
<stop offset="100%" style="stop-color:rgb(250,240,161);stop-opacity: 1"/>
</linearGradient>
<path style="stroke: none; stroke-width: 1; stroke-dasharray: none; stroke-linecap: butt; stroke-dashoffset: 0; stroke-linejoin: miter; stroke-miterlimit: 4; is-custom-font: none; font-file-url: none; fill: url(#SVGID_30); fill-rule: nonzero; opacity: 1;" transform=" translate(-3.6, -49.6)" d="M 5 47.9 H 2.2 c -1 0 -1.7 0.8 -1.7 1.7 c 0 1 0.8 1.7 1.7 1.7 H 5 c 1 0 1.7 -0.8 1.7 -1.7 C 6.7 48.6 6 47.9 5 47.9 z" stroke-linecap="round"/>
</g>
</g>
</g>
</svg>
